<svg width="84" height="36" viewBox="0 0 84 36" fill="none" xmlns="http://www.w3.org/2000/svg">
<path d="M13.3379 36V20.9365L0.227539 0.208984H8.69922L17.1221 14.3691L25.374 0.208984H33.6992L20.54 20.9854V36H13.3379ZM37.0684 0.306641H43.9287V5.21387C43.9287 7.19954 43.7578 8.77018 43.416 9.92578C43.0742 11.0651 42.4232 12.0905 41.4629 13.002C40.5189 13.9134 39.3145 14.6296 37.8496 15.1504L36.5068 12.3184C37.8903 11.8626 38.875 11.236 39.4609 10.4385C40.0469 9.64095 40.3561 8.55046 40.3887 7.16699H37.0684V0.306641Z" fill="#0066CC"/>
<path d="M51.2285 36V0.208984H66.4385C70.2633 0.208984 73.0384 0.534505 74.7637 1.18555C76.5052 1.82031 77.8968 2.95964 78.9385 4.60352C79.9801 6.2474 80.501 8.12728 80.501 10.2432C80.501 12.9287 79.7116 15.1504 78.1328 16.9082C76.554 18.6497 74.194 19.7484 71.0527 20.2041C72.6152 21.1156 73.901 22.1165 74.9102 23.207C75.9355 24.2975 77.3109 26.2344 79.0361 29.0176L83.4062 36H74.7637L69.5391 28.2119C67.6836 25.4287 66.4141 23.679 65.7305 22.9629C65.0469 22.2305 64.3226 21.734 63.5576 21.4736C62.7926 21.1969 61.5801 21.0586 59.9199 21.0586H58.4551V36H51.2285ZM58.4551 15.3457H63.8018C67.2686 15.3457 69.4333 15.1992 70.2959 14.9062C71.1585 14.6133 71.834 14.1087 72.3223 13.3926C72.8105 12.6764 73.0547 11.7812 73.0547 10.707C73.0547 9.5026 72.7292 8.53418 72.0781 7.80176C71.4434 7.05306 70.54 6.58105 69.3682 6.38574C68.7822 6.30436 67.0244 6.26367 64.0947 6.26367H58.4551V15.3457Z" fill="#FFCC00"/>
</svg>
